<svg width="64" height="64" viewBox="0 0 64 64" fill="none" xmlns="http://www.w3.org/2000/svg">
  <defs>
    <linearGradient id="bag" x1="16" y1="12" x2="48" y2="56" gradientUnits="userSpaceOnUse">
      <stop stop-color="#7C3AED"/>
      <stop offset="1" stop-color="#4F46E5"/>
    </linearGradient>
    <linearGradient id="coin" x1="20" y1="18" x2="44" y2="48" gradientUnits="userSpaceOnUse">
      <stop stop-color="#FDE68A"/>
      <stop offset="1" stop-color="#F59E0B"/>
    </linearGradient>
  </defs>
  <circle cx="32" cy="32" r="30" fill="#0F172A"/>
  <path d="M25 14h14l-2 7h-10l-2-7Z" fill="#C084FC"/>
  <path d="M22 19c-4 3-6 8-6 14 0 10 7 19 16 19s16-9 16-19c0-6-2-11-6-14-2-2-5-3-10-3s-8 1-10 3Z" fill="url(#bag)"/>
  <path d="M22 20c2-2 5-3 10-3s8 1 10 3" stroke="#E9D5FF" stroke-width="2.5" stroke-linecap="round"/>
  <path d="M27 10h10c1 0 2 1 2 2v2H25v-2c0-1 1-2 2-2Z" fill="#A78BFA"/>
  <circle cx="32" cy="35" r="11" fill="url(#coin)"/>
  <path d="M32 29v12" stroke="#FFF7ED" stroke-width="3.5" stroke-linecap="round"/>
  <path d="M28 33.5c0-2 1.8-3.5 4-3.5s4 1.2 4 3-1.8 2.9-4 3.5-4 1.4-4 3.5S29.8 43 32 43s4-1.2 4-3.5" stroke="#FFF7ED" stroke-width="2.5" stroke-linecap="round" stroke-linejoin="round"/>
</svg>